# File created by Blade
# Date/Time:  Thu Sep 25 18:58:07 2014
# Frame Rate: 120.000 fps
#------------------------------------------------------
:FULLY-SPECIFIED
:DEGREES
1464
root 1.429275 32.696628 2.146090 6.119545 0.611531 -0.454112
Spine -5.711887 3.726608 0.664084
Head -5.138034 -5.612982 10.749322
LeftShoulder -4.789323 26.465374 3.203856
LeftArm 53.438784 84.806905 -39.892152
LeftForeArm 11.219596 0.000000 33.606817
LeftHand -14.094917 -0.000000 -57.195850
LeftHandThumb1 -26.253704 0.000000 33.147579
RightShoulder -15.003011 -2.202904 -11.276618
RightArm -83.476699 -61.653364 173.842772
RightForeArm -18.094290 0.000000 43.490926
RightHand -3.973407 0.000000 24.843220
RightHandThumb1 -24.326973 -0.000000 -32.862282
LeftUpLeg 1.073461 8.216949 4.796261
LeftLeg -2.387904 -0.000000 0.000000
LeftFoot -8.923198 -2.180011 -17.493060
LeftToeBase 7.730875 -0.000000 -0.000000
RightUpLeg 0.452711 -8.591425 -6.398677
RightLeg 0.673823 -0.000000 -0.000000
RightFoot -7.034867 -2.441795 4.062932
RightToeBase -3.058634 -0.000000 0.000000
1465
root 1.433051 32.697279 2.136459 6.118086 0.636479 -0.465487
Spine -5.658959 3.739495 0.723492
Head -5.220413 -5.550357 10.683761
LeftShoulder -4.790144 26.489629 3.205466
LeftArm 53.187428 84.830020 -40.159934
LeftForeArm 10.896730 -0.000000 33.693075
LeftHand -14.449302 -0.000000 -58.775906
LeftHandThumb1 -26.253704 0.000000 33.147579
RightShoulder -15.057312 -2.131165 -11.172535
RightArm -82.909886 -61.705284 173.408728
RightForeArm -17.137298 -0.000000 43.369121
RightHand -5.484792 -0.000000 21.290025
RightHandThumb1 -24.326973 -0.000000 -32.862282
LeftUpLeg 1.034333 8.211188 4.802740
LeftLeg -2.359488 -0.000000 0.000000
LeftFoot -8.925181 -2.201009 -17.399175
LeftToeBase 7.689475 -0.000000 -0.000000
RightUpLeg 0.406331 -8.640673 -6.388214
RightLeg 0.743978 -0.000000 -0.000000
RightFoot -7.038028 -2.420814 4.041819
RightToeBase -3.088033 -0.000000 0.000000
1466
root 1.438626 32.699499 2.118330 6.190233 0.661491 -0.464070
Spine -5.688518 3.756823 0.766294
Head -5.273124 -5.518695 10.594918
LeftShoulder -4.789090 26.442060 3.202794
LeftArm 53.028926 84.927868 -40.326007
LeftForeArm 10.645481 0.000000 33.735147
LeftHand -14.734861 -0.000000 -60.274167
LeftHandThumb1 -26.253704 0.000000 33.147579
RightShoulder -15.092571 -2.073792 -11.104550
RightArm -82.027601 -61.720292 172.707853
RightForeArm -15.914461 -0.000000 43.025683
RightHand -7.375803 -0.000000 17.323413
RightHandThumb1 -24.326973 -0.000000 -32.862282
LeftUpLeg 0.901711 8.173788 4.775155
LeftLeg -2.301836 -0.000000 0.000000
LeftFoot -8.929797 -2.209994 -17.393034
LeftToeBase 7.778425 -0.000000 -0.000000
RightUpLeg 0.272773 -8.640136 -6.380733
RightLeg 0.815965 -0.000000 -0.000000
RightFoot -7.042020 -2.460994 4.051718
RightToeBase -3.088283 -0.000000 0.000000
1467
root 1.443496 32.700109 2.108196 6.211890 0.662776 -0.472752
Spine -5.673327 3.815151 0.817589
Head -5.318807 -5.505585 10.521991
LeftShoulder -4.804078 26.387199 3.168308
LeftArm 53.582629 85.064299 -39.746789
LeftForeArm 10.672323 0.000000 33.794981
LeftHand -14.635192 -0.000000 -61.221474
LeftHandThumb1 -26.253704 0.000000 33.147579
RightShoulder -15.149322 -1.997661 -11.009308
RightArm -80.669764 -61.595720 171.319898
RightForeArm -14.400775 -0.000000 42.686654
RightHand -9.720994 -0.000000 14.343791
RightHandThumb1 -24.326973 -0.000000 -32.862282
LeftUpLeg 0.856496 8.217354 4.770006
LeftLeg -2.310171 -0.000000 0.000000
LeftFoot -8.950336 -2.200345 -17.537779
LeftToeBase 7.931360 -0.000000 -0.000000
RightUpLeg 0.214614 -8.676164 -6.373742
RightLeg 0.851608 -0.000000 -0.000000
RightFoot -7.034102 -2.431881 4.034554
RightToeBase -3.149627 -0.000000 0.000000
1468
root 1.449163 32.700792 2.097638 6.248390 0.671884 -0.468836
Spine -5.683573 3.863715 0.845388
Head -5.343666 -5.519727 10.477805
LeftShoulder -4.840362 26.374707 3.197368
LeftArm 52.937516 85.030450 -40.418998
LeftForeArm 10.576970 -0.000000 33.678418
LeftHand -14.358035 0.000000 -60.623670
LeftHandThumb1 -26.253704 0.000000 33.147579
RightShoulder -15.250583 -1.972797 -10.870177
RightArm -79.598781 -61.583059 170.322217
RightForeArm -13.311295 -0.000000 42.135697
RightHand -11.271191 -0.000000 11.001235
RightHandThumb1 -24.326973 -0.000000 -32.862282
LeftUpLeg 0.799505 8.259089 4.745851
LeftLeg -2.302205 -0.000000 0.000000
LeftFoot -8.942059 -2.266059 -17.516404
LeftToeBase 8.021039 -0.000000 -0.000000
RightUpLeg 0.158559 -8.715613 -6.378809
RightLeg 0.856354 -0.000000 -0.000000
RightFoot -7.027579 -2.411730 4.027056
RightToeBase -3.057800 -0.000000 0.000000
1469
root 1.456582 32.701510 2.087370 6.297879 0.681685 -0.457567
Spine -5.716829 3.923111 0.862464
Head -5.347183 -5.547257 10.444275
LeftShoulder -4.862173 26.360969 3.221981
LeftArm 52.744034 85.046368 -40.644934
LeftForeArm 10.712510 -0.000000 33.515134
LeftHand -14.702873 -0.000000 -60.948504
LeftHandThumb1 -26.253704 0.000000 33.147579
RightShoulder -15.319062 -1.901017 -10.862861
RightArm -78.799906 -61.486959 169.569091
RightForeArm -12.910322 -0.000000 41.830761
RightHand -11.456653 -0.000000 12.610309
RightHandThumb1 -24.326973 -0.000000 -32.862282
LeftUpLeg 0.736796 8.264754 4.711685
LeftLeg -2.316688 -0.000000 0.000000
LeftFoot -8.928582 -2.252382 -17.484986
LeftToeBase 8.070099 -0.000000 -0.000000
RightUpLeg 0.094446 -8.777305 -6.391763
RightLeg 0.851285 -0.000000 -0.000000
RightFoot -6.998997 -2.371515 4.022110
RightToeBase -3.086208 -0.000000 0.000000
1470
root 1.463127 32.702627 2.074836 6.373945 0.686854 -0.449666
Spine -5.782432 3.965597 0.872263
Head -5.345128 -5.578798 10.442438
LeftShoulder -4.894695 26.326848 3.244729
LeftArm 51.526822 85.054364 -41.886296
LeftForeArm 11.172754 0.000000 33.321801
LeftHand -15.376994 -0.000000 -61.382849
LeftHandThumb1 -26.253704 0.000000 33.147579
RightShoulder -15.419925 -1.786047 -10.801438
RightArm -78.456811 -61.438712 169.311271
RightForeArm -12.455297 -0.000000 41.378088
RightHand -11.252142 -0.000000 13.513470
RightHandThumb1 -24.326973 -0.000000 -32.862282
LeftUpLeg 0.644955 8.313311 4.677881
LeftLeg -2.349874 -0.000000 0.000000
LeftFoot -8.864005 -2.244949 -17.468300
LeftToeBase 7.937856 -0.000000 -0.000000
RightUpLeg 0.010104 -8.815530 -6.397325
RightLeg 0.821893 -0.000000 -0.000000
RightFoot -6.960849 -2.353155 4.016900
RightToeBase -3.088682 -0.000000 0.000000
1471
root 1.468280 32.703932 2.064312 6.455933 0.704804 -0.443341
Spine -5.867021 3.998554 0.875242
Head -5.321254 -5.632804 10.461397
LeftShoulder -4.904496 26.343166 3.344209
LeftArm 48.898815 84.897277 -44.604234
LeftForeArm 11.671204 -0.000000 32.948140
LeftHand -15.101588 -0.000000 -60.987654
LeftHandThumb1 -26.253704 0.000000 33.147579
RightShoulder -15.528601 -1.665844 -10.721404
RightArm -78.398992 -61.417112 169.364043
RightForeArm -11.688416 -0.000000 40.913087
RightHand -10.709924 -0.000000 13.175593
RightHandThumb1 -24.326973 -0.000000 -32.862282
LeftUpLeg 0.550523 8.314344 4.642398
LeftLeg -2.364333 -0.000000 0.000000
LeftFoot -8.868375 -2.215585 -17.511482
LeftToeBase 8.040230 -0.000000 -0.000000
RightUpLeg -0.072821 -8.886333 -6.395706
RightLeg 0.789482 -0.000000 -0.000000
RightFoot -6.923873 -2.312685 4.033906
RightToeBase -3.099432 -0.000000 0.000000
1472
root 1.474641 32.705231 2.054444 6.533007 0.681264 -0.441766
Spine -5.944534 4.059891 0.885871
Head -5.304525 -5.696779 10.474557
LeftShoulder -4.971013 26.380801 3.396414
LeftArm 46.286251 84.617074 -47.317558
LeftForeArm 12.215737 -0.000000 32.532660
LeftHand -14.773209 -0.000000 -60.633290
LeftHandThumb1 -26.253704 0.000000 33.147579
RightShoulder -15.591787 -1.572177 -10.636695
RightArm -78.156068 -61.374164 169.226425
RightForeArm -11.247024 -0.000000 40.380291
RightHand -10.140579 0.000000 12.892202
RightHandThumb1 -24.326973 -0.000000 -32.862282
LeftUpLeg 0.474633 8.370428 4.620697
LeftLeg -2.405952 -0.000000 0.000000
LeftFoot -8.790803 -2.271941 -17.486439
LeftToeBase 7.975960 -0.000000 -0.000000
RightUpLeg -0.161363 -8.911328 -6.396856
RightLeg 0.765713 -0.000000 -0.000000
RightFoot -6.891730 -2.264930 4.050779
RightToeBase -3.076507 -0.000000 0.000000
1473
root 1.480545 32.705573 2.045672 6.604810 0.653300 -0.447512
Spine -6.016426 4.137404 0.910235
Head -5.304101 -5.791923 10.450941
LeftShoulder -5.075752 26.275889 3.383638
LeftArm 43.646334 84.441998 -49.978391
LeftForeArm 13.161077 0.000000 32.237162
LeftHand -14.070489 -0.000000 -60.254066
LeftHandThumb1 -26.253704 0.000000 33.147579
RightShoulder -15.612565 -1.457618 -10.564573
RightArm -77.791103 -61.250745 168.936381
RightForeArm -11.289119 -0.000000 39.877508
RightHand -9.699209 -0.000000 12.797722
RightHandThumb1 -24.326973 -0.000000 -32.862282
LeftUpLeg 0.419048 8.403156 4.601007
LeftLeg -2.466411 -0.000000 0.000000
LeftFoot -8.778305 -2.254341 -17.468154
LeftToeBase 8.010960 -0.000000 -0.000000
RightUpLeg -0.240771 -8.907059 -6.394155
RightLeg 0.736913 -0.000000 -0.000000
RightFoot -6.851191 -2.244706 4.086484
RightToeBase -3.100619 -0.000000 0.000000
1474
root 1.487816 32.705770 2.037754 6.684543 0.608863 -0.451593
Spine -6.103904 4.268391 0.934933
Head -5.303340 -5.940138 10.396432
LeftShoulder -5.193624 26.078075 3.378325
LeftArm 42.613542 84.472988 -51.013576
LeftForeArm 13.840854 -0.000000 31.949881
LeftHand -13.001788 0.000000 -59.750343
LeftHandThumb1 -26.253704 0.000000 33.147579
RightShoulder -15.650955 -1.384536 -10.507735
RightArm -77.304272 -61.132703 168.536581
RightForeArm -10.539836 0.000000 39.296229
RightHand -9.157823 -0.000000 13.007327
RightHandThumb1 -24.326973 -0.000000 -32.862282
LeftUpLeg 0.334555 8.545028 4.567374
LeftLeg -2.462947 -0.000000 0.000000
LeftFoot -8.757866 -2.314376 -17.500563
LeftToeBase 8.045933 -0.000000 -0.000000
RightUpLeg -0.321450 -8.872300 -6.395291
RightLeg 0.689658 -0.000000 -0.000000
RightFoot -6.812113 -2.229324 4.094307
RightToeBase -3.058199 -0.000000 0.000000
1475
root 1.494260 32.706956 2.027496 6.785830 0.567188 -0.451740
Spine -6.212064 4.411836 0.951634
Head -5.308884 -6.074347 10.340580
LeftShoulder -5.388200 25.764114 3.256042
LeftArm 42.643276 84.676698 -50.870143
LeftForeArm 14.797398 -0.000000 31.806095
LeftHand -12.563789 -0.000000 -60.078123
LeftHandThumb1 -26.253704 0.000000 33.147579
RightShoulder -15.691669 -1.314300 -10.425872
RightArm -76.848584 -60.958139 168.145583
RightForeArm -9.805286 -0.000000 38.705426
RightHand -8.573924 -0.000000 12.977135
RightHandThumb1 -24.326973 -0.000000 -32.862282
LeftUpLeg 0.244474 8.558791 4.534992
LeftLeg -2.513072 -0.000000 0.000000
LeftFoot -8.747084 -2.261574 -17.483146
LeftToeBase 8.074988 -0.000000 -0.000000
RightUpLeg -0.434418 -8.841941 -6.393697
RightLeg 0.655202 -0.000000 -0.000000
RightFoot -6.763719 -2.227432 4.079143
RightToeBase -3.073308 -0.000000 0.000000
